<svg xmlns="http://www.w3.org/2000/svg" width="916" height="1058"><path fill="#FFF" fill-rule="evenodd" d="M624.1 393h118.8v434.07H624.1V393zM598 950.447c0-50.432 36.9-85.553 85.5-85.553s85.5 35.121 85.5 85.553c0 50.431-36.9 85.553-85.5 85.553s-85.5-35.122-85.5-85.553zM76 229.739C76 105.577 178.51 30 307.996 30 435.684 30 531 105.577 531 217.143v3.599c0 106.167-68.34 149.354-132.184 177.246l-16.186 7.197c-21.58 9.897-28.774 21.594-28.774 47.686v23.393H235.16v-32.39c0-61.182 21.581-99.87 78.231-125.062l16.186-7.198c53.953-24.293 82.727-44.087 82.727-89.073 0-48.585-41.363-80.975-104.308-80.975-64.743 0-113.3 32.39-113.3 93.571v21.594H76v-26.992zm133.083 369.787c0-50.385 36.868-85.474 85.425-85.474 48.557 0 85.425 35.09 85.425 85.474 0 50.385-36.868 85.474-85.425 85.474-48.557 0-85.425-35.09-85.425-85.474z"/></svg>