<svg width="95" height="95" xmlns="http://www.w3.org/2000/svg"><path d="M95 0v95H0V0h95zM26.096 64.74H15V74h11.096v-9.26zm41.022 0H56.239V74h10.879v-9.26zM62.84 22c-6.625 0-11.823 1.4-15.594 4.204-3.771 2.754-5.657 6.434-5.657 11.041 0 1.187.17 2.469.508 3.846l9.5.855c-.337-1.092-.507-2.327-.507-3.704 0-2.897 1.039-5.152 3.118-6.767 2.128-1.615 4.98-2.422 8.558-2.422 3.336 0 5.923.712 7.76 2.137 1.837 1.425 2.756 3.253 2.756 5.485 0 1.995-.484 3.633-1.45 4.915-.967 1.282-2.37 2.469-4.207 3.561l-4.858 2.85c-3.82 2.327-5.73 5.39-5.73 9.189v2.991h9.138v-2.066c0-1.472.266-2.659.797-3.562.581-.949 1.572-1.852 2.974-2.706l4.641-2.778C80.196 45.555 83 41.233 83 36.105c0-4.37-1.789-7.813-5.366-10.33C74.105 23.258 69.173 22 62.84 22zm-36.744.356H15l1.886 36.543v.001h7.324l1.886-36.544z" fill="#000" fill-rule="nonzero"/></svg>