<svg width="33" height="33" xmlns="http://www.w3.org/2000/svg"><g transform="translate(-2)" fill="#FFF"><circle transform="rotate(-45 5.46 29.093)" cx="5.461" cy="29.093" r="3.46"/><path d="M34.85 3.88a1.08 1.08 0 0 0-.32-.81L31.78.32a1.08 1.08 0 0 0-1.58.05L13.83 19.19a1.08 1.08 0 0 0 1.51 1.54l8.35-7a7.29 7.29 0 0 1 1 3.71 7.37 7.37 0 1 1-7.37-7.37h.66l2.52-2.52a10.22 10.22 0 0 0-3.18-.52c-5.72.011-10.352 4.653-10.35 10.373.002 5.721 4.636 10.36 10.357 10.367 5.72.007 10.366-4.62 10.383-10.34A10.26 10.26 0 0 0 26 11.77l8.46-7.11a1.08 1.08 0 0 0 .39-.78z"/></g></svg>