<svg width="95" height="95" fill="none" xmlns="http://www.w3.org/2000/svg"><path fill="#000" d="M0 0h95v95H0z"/><path d="M16.886 58.899L15 22.356h11.096L24.21 58.9h-7.324zm9.21 5.84V74H15v-9.26h11.096zM57.037 60.18V57.19c0-3.799 1.91-6.862 5.73-9.189l4.858-2.85c1.837-1.092 3.24-2.279 4.207-3.561.966-1.282 1.45-2.92 1.45-4.915 0-2.232-.919-4.06-2.756-5.485-1.837-1.425-4.424-2.137-7.76-2.137-3.578 0-6.43.807-8.558 2.422-2.079 1.615-3.118 3.87-3.118 6.767 0 1.377.17 2.612.507 3.704l-9.5-.855c-.338-1.377-.508-2.659-.508-3.846 0-4.607 1.886-8.287 5.657-11.041C51.017 23.4 56.215 22 62.84 22c6.333 0 11.265 1.258 14.794 3.775C81.211 28.292 83 31.735 83 36.105c0 5.128-2.804 9.45-8.413 12.964l-4.641 2.778c-1.402.854-2.393 1.757-2.974 2.706-.531.903-.797 2.09-.797 3.562v2.066h-9.138zM56.239 74v-9.26h10.879V74H56.239z" fill="#fff"/></svg>