<svg xmlns="http://www.w3.org/2000/svg" width="63" height="63" fill="none"><g clip-path="url(#a)"><path fill="#FFD24C" d="M0 0h63v63H0z" style="fill:#ffd24c;fill:color(display-p3 1 .8235 .298);fill-opacity:1"/><g fill="#000" opacity=".75"><path d="M18.51 44.134c.214 0 .387.173.387.387v7.82a.387.387 0 0 1-.387.388h-7.82a.387.387 0 0 1-.388-.388v-7.82c0-.214.174-.387.388-.387h7.82M50.487 20.364a.003.003 0 0 1 0-.004 5.583 5.583 0 1 0-7.934-7.648.01.01 0 0 1-.014.001.01.01 0 0 0-.015.002c-3.372 4.642-5.565 7.62-7.758 10.598-2.152 2.921-4.304 5.843-7.57 10.338a.389.389 0 0 0 .04.503l1.577 1.578c.13.129.332.15.485.05 3.307-2.167 6.47-4.598 9.737-7.108 3.448-2.65 7.01-5.387 10.978-7.996.125-.075.249-.156.37-.242l.104-.067a.003.003 0 0 0 0-.005" style="fill:#000;fill-opacity:1"/><path d="M41.524 32.05c.01-.109.065-.21.152-.276a388.218 388.218 0 0 1 4.207-3.2.374.374 0 0 1 .598.237 14.995 14.995 0 0 1-4.225 12.899c-5.864 5.864-15.371 5.864-21.235 0-5.865-5.864-5.865-15.372 0-21.236 3.587-3.587 8.538-4.98 13.185-4.178.276.048.4.37.233.596a2686.787 2686.787 0 0 1-2.949 4.01l-.084.113a.396.396 0 0 1-.298.16 9.895 9.895 0 0 0-6.492 2.894c-3.88 3.879-3.88 10.167 0 14.046 3.878 3.879 10.167 3.879 14.045 0a9.891 9.891 0 0 0 2.863-6.065" style="fill:#000;fill-opacity:1"/></g></g><defs><clipPath id="a"><path fill="#fff" d="M0 0h63v63H0z" style="fill:#fff;fill-opacity:1"/></clipPath></defs></svg>