<svg xmlns="http://www.w3.org/2000/svg" width="63" height="63" fill="none"><g fill="#000" clip-path="url(#a)" opacity=".76"><path d="M52.697 18.056a5.49 5.49 0 1 1-7.765-7.765 5.49 5.49 0 0 1 7.765 7.765" style="fill:#000;fill-opacity:1"/><path fill-rule="evenodd" d="M42.51 23.412 24.785 41.136l-3.517-3.517 17.724-17.723 3.516 3.516" clip-rule="evenodd" style="fill:#000;fill-opacity:1"/><path fill-rule="evenodd" d="M40.942 31.291c0-5.423-4.396-9.819-9.82-9.819-5.422 0-9.819 4.396-9.819 9.82 0 5.423 4.397 9.819 9.82 9.819s9.82-4.396 9.82-9.82m4.973 0c0-8.17-6.623-14.792-14.792-14.792-8.17 0-14.793 6.623-14.793 14.792 0 8.17 6.623 14.793 14.793 14.793 8.17 0 14.792-6.623 14.792-14.793" clip-rule="evenodd" style="fill:#000;fill-opacity:1"/><path d="M18.592 44.12v8.452h-8.453v-8.453h8.453" style="fill:#000;fill-opacity:1"/></g><defs><clipPath id="a"><path fill="#fff" d="M0 0h63v63H0z" style="fill:#fff;fill-opacity:1"/></clipPath></defs></svg>