<svg xmlns="http://www.w3.org/2000/svg" width="63" height="63" fill="none"><g fill="#000" clip-path="url(#a)" opacity=".76"><path d="M50.095 21.165a5.49 5.49 0 1 0-7.807-7.514l-.016-.015c-3.32 4.57-5.477 7.501-7.636 10.431C32.478 26.997 30.32 29.928 27 34.5l2 2c3.346-2.173 6.537-4.625 9.834-7.159 3.391-2.605 6.895-5.298 10.797-7.863.123-.075.245-.154.363-.238l.106-.07-.005-.004" style="fill:#000;fill-opacity:1"/><path d="M34.88 16.983c-1.2-.315-2.46-.483-3.76-.483-8.169 0-14.792 6.623-14.792 14.793 0 8.17 6.623 14.793 14.793 14.793 8.17 0 14.792-6.623 14.792-14.793 0-.743-.055-1.474-.16-2.188a353.181 353.181 0 0 0-4.139 3.144l-.388.299-.41.315c-.752 4.677-4.807 8.25-9.695 8.25-5.423 0-9.82-4.397-9.82-9.82s4.397-9.82 9.82-9.82c.15 0 .301.004.45.01 1.053-1.428 2.11-2.865 3.31-4.5M18.594 44.12v8.454H10.14V44.12h8.453" style="fill:#000;fill-opacity:1"/></g><defs><clipPath id="a"><path fill="#fff" d="M0 0h63v63H0z" style="fill:#fff;fill-opacity:1"/></clipPath></defs></svg>