<svg width="70" height="70" viewBox="0 0 70 70" xmlns="http://www.w3.org/2000/svg"><title>Artboard</title><path d="M17 53.349C17 55.96 19.03 58 21.631 58c2.602 0 4.631-2.039 4.631-4.651 0-2.613-2.03-4.65-4.63-4.65-2.602 0-4.632 2.037-4.632 4.65zm8.756-40.712h-8.312l2.728 31.793h2.855l2.729-31.793zM51.1 21.112c0 4.523-2.347 6.433-5.33 8.918-3.615 2.995-5.012 5.734-5.012 9.303 0 2.293 1.27 4.715 1.84 5.734h1.84v-2.04c0-3.822 1.46-5.797 4.886-8.282C53.954 31.305 57 27.928 57 22.64 57 15.503 51.924 12 44.502 12c-6.47 0-11.864 3.568-11.864 8.283 0 1.337.507 2.293 1.332 3.058h5.075v-2.358c0-3.695 1.65-5.989 5.583-5.989 4.06 0 6.472 2.358 6.472 6.117zM38.855 53.348c0 2.612 2.03 4.651 4.631 4.651 2.602 0 4.631-2.039 4.631-4.651 0-2.612-2.029-4.65-4.63-4.65-2.602 0-4.632 2.038-4.632 4.65z" fill="#000" fill-rule="evenodd"/></svg>